<svg xmlns="http://www.w3.org/2000/svg" width="20.033" height="21.499" viewBox="0 0 20.033 21.499">
  <g id="electron" transform="translate(-3066 -1704)">
    <g id="组_41" data-name="组 41" transform="translate(3008.73 1700.211)">
      <path id="路径_26" data-name="路径 26" d="M72.156,21.949a15.973,15.973,0,0,1-7.543-2.29A18.153,18.153,0,0,1,60.3,16.282l.59-.541a17.287,17.287,0,0,0,4.124,3.223C68.578,21,72.443,21.7,74.463,20.7a1.463,1.463,0,0,1-.14-.624,1.491,1.491,0,1,1,.683,1.242A5.88,5.88,0,0,1,72.156,21.949ZM75.813,19.4a.679.679,0,1,0,.689.679A.685.685,0,0,0,75.813,19.4Zm-16.991-5.09c-.962-1.664-1.124-3.21-.457-4.355.9-1.542,3.094-2.122,6.026-1.595l-.143.787c-2.54-.456-4.482-.005-5.191,1.211-.517.886-.354,2.147.459,3.551Z" fill="#74b1be"/>
    </g>
    <g id="组_42" data-name="组 42" transform="translate(3008.73 1700.211)">
      <path id="路径_27" data-name="路径 27" d="M58.76,21.561a1.477,1.477,0,0,1-.786-2.736c-.161-2.6,2.517-5.98,6.648-8.342a18.154,18.154,0,0,1,5.159-2.025l.166.782a17.4,17.4,0,0,0-4.928,1.937c-3.72,2.128-6.26,5.176-6.253,7.425a1.48,1.48,0,1,1-.006,2.959Zm0-2.159a.679.679,0,1,0,.688.679A.685.685,0,0,0,58.76,19.4Zm15.849-3.47L74,15.413c1.661-1.944,2.231-3.828,1.525-5.038C75.019,9.5,73.861,9.01,72.268,8.99l.009-.8c1.886.024,3.286.657,3.942,1.781C77.117,11.513,76.53,13.686,74.609,15.932Z" fill="#74b1be"/>
    </g>
    <g id="组_43" data-name="组 43" transform="translate(3008.73 1700.211)">
      <path id="路径_28" data-name="路径 28" d="M67.3,25.288c-1.795,0-3.4-1.592-4.4-4.368l.752-.272c.869,2.4,2.235,3.839,3.652,3.839a3.591,3.591,0,0,0,2.823-2.071l.684.416C69.841,24.415,68.6,25.288,67.3,25.288ZM71.878,20.4l-.764-.242a17.031,17.031,0,0,0,.734-5.076c0-4.164-1.363-7.85-3.287-9.029a1.477,1.477,0,1,1,.225-.792c2.286,1.229,3.862,5.2,3.862,9.821A17.892,17.892,0,0,1,71.878,20.4ZM67.3,4.589a.679.679,0,1,0,.689.679A.685.685,0,0,0,67.3,4.589Z" fill="#74b1be"/>
    </g>
    <g id="组_44" data-name="组 44" transform="translate(3008.73 1700.211)">
      <path id="路径_29" data-name="路径 29" d="M67.506,16.043a.988.988,0,1,1,.764-1.173A1,1,0,0,1,67.506,16.043Z" fill="#74b1be"/>
    </g>
  </g>
</svg>
