<?xml version="1.0" standalone="no"?><!DOCTYPE svg PUBLIC "-//W3C//DTD SVG 1.1//EN" "http://www.w3.org/Graphics/SVG/1.1/DTD/svg11.dtd"><svg t="1585741440312" class="icon" viewBox="0 0 1024 1024" version="1.1" xmlns="http://www.w3.org/2000/svg" p-id="1969" xmlns:xlink="http://www.w3.org/1999/xlink" width="200" height="200"><defs><style type="text/css"></style></defs><path d="M65.155441 509.97897 65.155441 532.577664 242.886331 532.577664 242.886331 509.97897 242.886331 487.379253 65.155441 487.379253Z" p-id="1970" fill="#ffffff"></path><path d="M65.155441 148.379399l177.731914 0 0 45.199435-177.731914 0 0-45.199435Z" p-id="1971" fill="#ffffff"></path><path d="M331.786057 148.379399l625.692389 0 0 45.199435-625.692389 0 0-45.199435Z" p-id="1972" fill="#ffffff"></path><path d="M65.155441 826.378084l177.731914 0 0 45.199435-177.731914 0 0-45.199435Z" p-id="1973" fill="#ffffff"></path><path d="M331.786057 509.97897 331.786057 532.577664 957.478446 532.577664 957.478446 509.97897 957.478446 487.379253 331.786057 487.379253Z" p-id="1974" fill="#ffffff"></path><path d="M324.679196 826.378084l632.79925 0 0 45.199435-632.79925 0 0-45.199435Z" p-id="1975" fill="#ffffff"></path></svg>