<svg xmlns="http://www.w3.org/2000/svg" width="25.426" height="25.426" viewBox="0 0 25.426 25.426">
  <path id="little_p" data-name="little p" d="M73.049,84.069a3.588,3.588,0,0,1-3.714-3.446,3.311,3.311,0,0,1,.481-1.694,3.686,3.686,0,0,1,2.119-1.595,2.049,2.049,0,0,1,.592-.1.706.706,0,0,1,0,1.413.4.4,0,0,0-.157.028,2.226,2.226,0,0,0-1.356.988,1.779,1.779,0,0,0-.268.96,2.181,2.181,0,0,0,2.29,2.033,2.567,2.567,0,0,0,1.245-.325,1.987,1.987,0,0,0,1.059-1.709V74.7a3.364,3.364,0,0,1,1.766-2.925,3.883,3.883,0,0,1,1.937-.51,3.588,3.588,0,0,1,3.714,3.446,3.311,3.311,0,0,1-.481,1.694A3.686,3.686,0,0,1,80.157,78a2.126,2.126,0,0,1-.592.1.706.706,0,0,1,0-1.413.4.4,0,0,0,.157-.028,2.328,2.328,0,0,0,1.356-.988,1.8,1.8,0,0,0,.268-.96,2.185,2.185,0,0,0-2.3-2.033,2.567,2.567,0,0,0-1.245.325,1.987,1.987,0,0,0-1.059,1.709v5.9a3.361,3.361,0,0,1-1.766,2.925,3.676,3.676,0,0,1-1.925.527Zm14.365-6.356a11.3,11.3,0,1,0-11.3,11.3A11.3,11.3,0,0,0,87.413,77.713Zm1.413,0A12.713,12.713,0,1,1,76.113,65,12.714,12.714,0,0,1,88.826,77.713Zm0,0" transform="translate(-63.4 -65)" fill="#7c7fff"/>
</svg>
