<svg xmlns="http://www.w3.org/2000/svg" width="23.861" height="20.88" viewBox="0 0 23.861 20.88">
  <path id="react" d="M19.49,70.791q-.377-.126-.755-.238c.042-.172.079-.345.117-.517.573-2.778.2-5.01-1.077-5.746-1.226-.7-3.225.028-5.248,1.79-.2.172-.4.354-.583.536-.126-.121-.256-.242-.387-.359-2.12-1.883-4.246-2.675-5.518-1.934-1.221.708-1.585,2.81-1.072,5.439.051.261.107.517.172.778-.3.084-.592.177-.867.275C1.785,71.677,0,73.038,0,74.445c0,1.454,1.9,2.913,4.488,3.8.21.07.419.14.634.2-.07.28-.13.555-.186.839-.489,2.587-.107,4.637,1.114,5.341,1.258.727,3.374-.019,5.434-1.822.163-.144.326-.294.489-.452.205.2.419.391.634.578,1.995,1.715,3.966,2.409,5.182,1.706,1.258-.727,1.668-2.931,1.137-5.616q-.063-.308-.14-.629c.149-.042.294-.089.438-.135,2.689-.89,4.637-2.33,4.637-3.808C23.861,73.033,22.025,71.663,19.49,70.791Zm-6.306-3.957c1.734-1.51,3.351-2.1,4.087-1.678.788.452,1.091,2.279.6,4.679-.033.158-.065.312-.107.466a23.856,23.856,0,0,0-3.136-.494,23.546,23.546,0,0,0-1.985-2.475C12.821,67.161,13,67,13.184,66.835ZM7.126,75.647c.214.41.433.816.666,1.216s.48.811.736,1.207a21.1,21.1,0,0,1-2.162-.35A21.769,21.769,0,0,1,7.126,75.647Zm0-2.358c-.294-.694-.541-1.375-.746-2.032.671-.149,1.384-.27,2.125-.363-.247.387-.489.783-.718,1.184S7.336,72.879,7.126,73.289Zm.531,1.179c.308-.643.643-1.272,1-1.892s.736-1.221,1.137-1.813c.7-.051,1.412-.079,2.139-.079s1.445.028,2.139.079q.594.881,1.132,1.8t1.011,1.883q-.468.965-1.007,1.9c-.354.62-.732,1.221-1.128,1.818-.694.051-1.417.075-2.148.075s-1.44-.023-2.125-.065Q9.2,77.29,8.659,76.361c-.359-.62-.69-1.249-1-1.892Zm8.417,2.386c.238-.41.461-.825.68-1.244a21.635,21.635,0,0,1,.788,2.065,20.471,20.471,0,0,1-2.19.373C15.6,77.656,15.841,77.255,16.074,76.855Zm.671-3.565c-.219-.41-.443-.82-.676-1.221s-.466-.788-.713-1.174a21.444,21.444,0,0,1,2.139.373A20.624,20.624,0,0,1,16.745,73.289Zm-4.8-5.243a20.467,20.467,0,0,1,1.379,1.668c-.923-.042-1.85-.042-2.773,0C11,69.114,11.474,68.554,11.94,68.046ZM6.534,65.189c.783-.457,2.521.2,4.353,1.818.117.1.233.214.354.326a23.677,23.677,0,0,0-2,2.475,24.566,24.566,0,0,0-3.132.485c-.061-.238-.112-.48-.163-.722-.438-2.256-.149-3.957.587-4.381ZM5.392,77.474c-.2-.056-.387-.117-.578-.182a9.5,9.5,0,0,1-2.936-1.454A2.091,2.091,0,0,1,1,74.445c0-.853,1.473-1.943,3.6-2.684.266-.093.536-.177.806-.256a24.781,24.781,0,0,0,1.142,2.964A25.476,25.476,0,0,0,5.392,77.474Zm5.434,4.567A8.53,8.53,0,0,1,8.2,83.687a2.063,2.063,0,0,1-1.645.061c-.741-.429-1.049-2.074-.629-4.288.051-.261.107-.522.172-.778a23.315,23.315,0,0,0,3.164.457,24.593,24.593,0,0,0,2.013,2.489c-.149.144-.3.284-.447.415Zm1.142-1.132c-.475-.513-.951-1.081-1.412-1.692.447.019.909.028,1.375.028s.951-.009,1.417-.033A20.094,20.094,0,0,1,11.968,80.909Zm6.091,1.4a2.071,2.071,0,0,1-.769,1.459c-.741.429-2.321-.131-4.027-1.594-.2-.168-.391-.35-.592-.536a23.055,23.055,0,0,0,1.967-2.5,22.974,22.974,0,0,0,3.178-.489c.047.191.089.382.126.569A8.5,8.5,0,0,1,18.059,82.307Zm.848-5.01c-.13.042-.261.084-.4.121a23.675,23.675,0,0,0-1.188-2.973,23.557,23.557,0,0,0,1.142-2.931c.242.07.475.144.7.219,2.172.746,3.7,1.855,3.7,2.7C22.859,75.349,21.233,76.528,18.907,77.3Zm-6.977-4.968A2.134,2.134,0,1,1,9.8,74.464a2.134,2.134,0,0,1,2.134-2.134" transform="translate(0 -64.025)" fill="#61dafb"/>
</svg>
