<svg xmlns="http://www.w3.org/2000/svg" width="20.965" height="19.883" viewBox="0 0 20.965 19.883">
  <g id="redux" transform="translate(-0.098 -26.495)">
    <path id="路径_9" data-name="路径 9" d="M14.629,483.8a1.454,1.454,0,0,0,1.31-1.532,1.509,1.509,0,0,0-1.492-1.44h-.053a1.494,1.494,0,0,0-1.44,1.545,1.6,1.6,0,0,0,.432,1.007,9.637,9.637,0,0,1-4.372,4.189,7.168,7.168,0,0,1-4.319.812,3.766,3.766,0,0,1-2.722-1.571,3.9,3.9,0,0,1-.223-4.136,6.172,6.172,0,0,1,1.834-2.134,8.7,8.7,0,0,1-.367-1.347c-3.875,2.776-3.481,6.571-2.3,8.364A5.576,5.576,0,0,0,5.546,489.7a6.8,6.8,0,0,0,1.61-.169,10.241,10.241,0,0,0,7.461-5.707l.012-.027Z" transform="translate(0 -443.426)" fill="#a66cff"/>
    <path id="路径_10" data-name="路径 10" d="M380.675,330.193a10.8,10.8,0,0,0-8.417-3.691h-.446a1.409,1.409,0,0,0-1.308-.785h-.039a1.465,1.465,0,0,0-1.439,1.531,1.508,1.508,0,0,0,1.492,1.44h.065a1.477,1.477,0,0,0,1.309-.916h.485a10.137,10.137,0,0,1,5.668,1.74,7.175,7.175,0,0,1,2.827,3.4,3.614,3.614,0,0,1-.039,3.142,3.891,3.891,0,0,1-3.665,2.2,6.832,6.832,0,0,1-2.592-.563c-.314.26-.838.693-1.218.955a8.4,8.4,0,0,0,3.442.824,5.844,5.844,0,0,0,5.17-2.827,5.99,5.99,0,0,0-1.283-6.479l-.012.026Z" transform="translate(-361.373 -293.095)" fill="#a66cff"/>
    <path id="路径_11" data-name="路径 11" d="M205.933,40.841a1.506,1.506,0,0,0,1.492,1.44h.052a1.492,1.492,0,0,0-.039-2.983h-.053a.563.563,0,0,0-.2.025,9.777,9.777,0,0,1-1.373-5.915,7.106,7.106,0,0,1,1.57-4.137,4.652,4.652,0,0,1,3.273-1.492c2.827-.053,4.006,3.469,4.1,4.87l1.309.392c-.3-4.293-2.97-6.545-5.523-6.545a6.064,6.064,0,0,0-5.5,4.294,11,11,0,0,0,1.074,9.294,1.158,1.158,0,0,0-.183.758Z" transform="translate(-200.165)" fill="#a66cff"/>
  </g>
</svg>
