<svg id="TS" xmlns="http://www.w3.org/2000/svg" width="16.416" height="16.416" viewBox="0 0 16.416 16.416">
  <path id="路径_30" data-name="路径 30" d="M0,8.208v8.208H16.416V0H0Z" fill="#007acc"/>
  <path id="路径_31" data-name="路径 31" d="M56.535,118.952l-.005.672h2.137V125.7h1.511v-6.071h2.137v-.659a6.455,6.455,0,0,0-.018-.677c-.008-.01-1.308-.016-2.885-.013l-2.869.008Z" transform="translate(-52.905 -110.689)" fill="#fff"/>
  <path id="路径_32" data-name="路径 32" d="M156.661,117.122a2.044,2.044,0,0,1,1.027.591,2.706,2.706,0,0,1,.393.526c.005.021-.709.5-1.141.769-.016.01-.078-.057-.149-.162a.93.93,0,0,0-.771-.464c-.5-.034-.818.227-.816.662a.6.6,0,0,0,.07.307c.109.227.313.362.951.638a4.092,4.092,0,0,1,1.991,1.313,2.382,2.382,0,0,1,.19,2,2.2,2.2,0,0,1-1.816,1.3,5.034,5.034,0,0,1-1.251-.013,3.017,3.017,0,0,1-1.67-.87,2.9,2.9,0,0,1-.427-.633,1.236,1.236,0,0,1,.151-.1l.61-.352.472-.274.1.146a2.2,2.2,0,0,0,.623.6,1.524,1.524,0,0,0,1.6-.081.714.714,0,0,0,.091-.909c-.128-.182-.388-.336-1.128-.657a4.062,4.062,0,0,1-1.545-.951,2.164,2.164,0,0,1-.451-.821,3.288,3.288,0,0,1-.029-1.047,2,2,0,0,1,1.683-1.558A4.159,4.159,0,0,1,156.661,117.122Z" transform="translate(-143.415 -109.548)" fill="#fff"/>
</svg>
